<?xml version="1.0" encoding="UTF-8"?>
<svg xmlns="http://www.w3.org/2000/svg" xmlns:xlink="http://www.w3.org/1999/xlink" version="1.1" id="Calque_1" x="0px" y="0px" width="24px" height="24px" viewBox="0 0 24 24" xml:space="preserve">
<g>
	<path fill="none" d="M0,0h24v24H0V0z"></path>
	<path fill="none" stroke="#fff" stroke-width="1.5" stroke-linecap="round" stroke-linejoin="round" d="M14.163,21l4.444-0.988   C19.421,19.832,20,19.11,20,18.277V5.766c0-0.833-0.579-1.555-1.392-1.735l-4.444-0.988C13.053,2.796,12,3.641,12,4.779v14.486   C12,20.402,13.053,21.247,14.163,21z"></path>
	<path fill="none" stroke="#fff" stroke-width="1.5" stroke-linecap="round" stroke-linejoin="round" d="M15,10.98v2"></path>
	<path fill="none" stroke="#fff" stroke-width="1.5" stroke-linecap="round" stroke-linejoin="round" d="M4,16v2.042   c0,1.105,0.895,2,2,2h3"></path>
	<path fill="none" stroke="#fff" stroke-width="1.5" stroke-linecap="round" stroke-linejoin="round" d="M4,8V6   c0-1.105,0.895-2,2-2h3"></path>
	<path fill="none" stroke="#fff" stroke-width="1.5" stroke-linecap="round" stroke-linejoin="round" d="M4,12h5"></path>
	<path fill="none" stroke="#fff" stroke-width="1.5" stroke-linecap="round" stroke-linejoin="round" d="M7,14l2-2l-2-2"></path>
</g>
</svg>
